<svg width="787" height="624" viewBox="0 0 787 624" fill="none" xmlns="http://www.w3.org/2000/svg">
<g filter="url(#filter0_ddd_13_35855)">
<path d="M628.42 281.04C621.34 305.81 621.29 304.8 621.29 304.8L611.17 306.59C611.17 306.59 570.39 371.62 551.28 383.65C527.93 394.27 504.57 405.59 504.57 405.59C504.57 405.59 251.93 409.13 230.7 409.13C209.47 409.13 177.62 409.84 164.17 392.85C150.73 375.87 136.57 346.14 136.57 346.14H133.04L128.79 334.82C128.79 334.82 557.65 310.76 628.42 281.04Z" fill="#F08136"/>
</g>
<path d="M185.731 366.512C185.731 366.512 174.645 370.999 170.289 369.858C165.933 368.717 161.656 361.338 151.758 363.714C141.91 368.632 95.7713 386.947 95.7713 386.947C95.7713 386.947 100.842 411.445 106.087 415.453C115.175 413.616 159.252 404.175 166.99 395.028C174.727 385.895 171.02 383.296 176.856 380.107C182.692 376.918 413.141 295.718 413.141 295.718C413.141 295.718 418.226 285.068 408.388 286.47C398.436 289.813 185.717 366.497 185.717 366.497L185.731 366.512Z" fill="#220A0B"/>
<path d="M365.1 318.17L356.95 318.82C356.25 310.1 348.62 303.59 339.9 304.29C331.18 304.99 324.67 312.62 325.37 321.34L317.22 321.99C316.16 308.77 326.03 297.19 339.25 296.14C352.47 295.08 364.05 304.94 365.1 318.17Z" fill="#BDBEC0"/>
<path d="M398.53 341.49L398.64 342.64C398.83 344.61 398.47 345.64 397.57 345.75C397.49 345.75 396.3 345.09 393.98 343.74C391.66 342.39 389.66 341.8 388.04 341.99C387.51 342.06 386.91 342.42 386.26 343.08C385.61 343.74 385.18 344.57 384.97 345.58C384.76 346.59 384.83 348.31 385.18 350.73C385.86 355.41 387.25 357.58 389.4 357.35C390.06 357.28 390.83 356.78 391.73 355.84C392.63 354.9 393.16 354.41 393.31 354.39C394.48 354.26 395.28 356.09 395.69 359.8C395.91 361.8 395.8 363.21 395.36 364.07C395.17 364.46 394.92 364.67 394.61 364.7C394.3 364.73 393.69 364.55 392.78 364.15C391.87 363.75 391.24 363.57 390.9 363.6C389.5 363.74 388.52 364.29 387.96 365.25C387.58 365.9 387.53 367.17 387.81 369.06C388.09 370.95 388.52 372.67 389.15 374.34C389.78 376.01 390.3 377.24 390.76 378.09C391.22 378.94 391.45 379.37 391.45 379.39C391.58 380.35 390.93 380.89 389.51 381L388.81 381.03L388.1 381.09C384.73 381.37 382.56 381.35 381.6 381.05C380.96 380.85 380.59 380.42 380.47 379.75C380.35 379.08 380.66 378.39 381.4 377.68C382.14 376.97 382.51 376.13 382.51 375.19C382.51 374.83 381.87 370.88 380.55 363.02C379.15 354.68 378.16 349.46 377.65 347.74C377.14 346.02 376.31 344.48 375.18 343.2C374.05 341.92 373.4 340.86 373.26 340.07C373.12 339.28 373.42 338.73 374.18 338.44C375.52 337.9 379.04 337.26 384.78 336.53L387.36 336.09L389.96 335.76L390.81 335.69C394 335.28 395.92 335.33 396.55 335.83C397.61 336.68 398.27 338.58 398.55 341.48L398.53 341.49Z" fill="white"/>
<path d="M411.18 379.04L409.15 379.21C407.26 379.36 406.13 379.39 405.75 379.28C405.37 379.17 405.14 378.79 405.09 378.13C405.04 377.47 405.33 376.64 405.96 375.64C406.59 374.64 406.99 373.62 407.1 372.63C407.21 371.64 407.12 369.03 406.81 364.73C406.5 360.43 406.21 357.61 405.98 356.8C405.75 355.99 405.17 355.32 404.23 354.81C403.29 354.3 402.79 353.61 402.72 352.75C402.65 351.89 403.01 351.2 403.8 350.7C405.62 349.58 407.68 348.88 409.98 348.62L410.34 348.58C411.27 348.48 411.83 348.98 412.03 350.09C412.14 350.72 412.37 354.5 412.7 361.17C413.02 367.54 413.3 371.12 413.55 372.13C413.8 373.14 414.36 374.17 415.22 375.23C416.08 376.29 416.52 376.95 416.53 377.23V377.57C416.57 378.24 414.77 378.73 411.16 379.02L411.18 379.04ZM404 337.63C403.89 336.18 404.17 334.9 404.86 333.79C405.55 332.68 406.34 332.05 407.22 331.93L408.03 331.83C408.29 331.88 408.5 331.89 408.67 331.86C409.48 331.76 410.23 332.22 410.91 333.25C411.59 334.28 411.95 335.28 412 336.26L412.05 337.24C412.03 337.49 412.02 337.68 412.03 337.81C412.08 338.85 411.74 339.91 411.02 340.99C410.3 342.07 409.48 342.64 408.56 342.75L407.81 342.84C406.9 342.95 406.09 342.61 405.38 341.84C404.67 341.07 404.26 340.11 404.17 338.98L404.09 338.62L404.02 337.65L404 337.63Z" fill="white"/>
<path d="M436.45 350.66C436.38 352.59 436.24 353.87 436.02 354.5C435.8 355.13 435.41 355.47 434.85 355.53C433.94 355.62 432.99 354.82 431.99 353.1C430.99 351.38 429.66 350.57 428.06 350.74C427.15 350.84 426.43 351.25 425.89 351.97C425.36 352.69 425.1 353.44 425.1 354.23C425.1 355.57 425.57 356.63 426.49 357.42C426.93 357.79 428.35 358.55 430.74 359.69C433.13 360.83 434.79 362.06 435.78 363.4C436.77 364.74 437.2 366.59 437.1 368.97C437 371.35 436.18 373.37 434.62 375.18C433.06 376.99 431.18 377.93 428.89 378.11L427.72 378.21C424.87 378.44 422.74 378.18 421.31 377.43C420.3 376.91 419.77 375.5 419.71 373.19C419.65 370.88 419.96 369.61 420.63 369.55C421.49 369.47 422.57 370.31 423.86 372.04C425.15 373.77 426.5 374.54 427.98 374.41C428.88 374.33 429.64 374.02 430.27 373.47C430.9 372.92 431.23 372.1 431.25 371.02C431.27 369.94 430.84 368.98 429.97 368.19C429.5 367.76 428.22 367.05 426.13 366.04C424.04 365.03 422.52 363.99 421.6 362.92C420.22 361.32 419.49 359.22 419.43 356.62C419.37 354.02 420.12 351.64 421.73 349.66C423.34 347.68 425.31 346.5 427.55 346.25L428.22 346.17C431.77 345.77 434.19 346.02 435.45 346.93C436.18 347.46 436.51 348.72 436.44 350.68L436.45 350.66Z" fill="white"/>
<path d="M459.66 368.58C460.29 368.52 460.53 369.05 460.39 370.15C460.25 371.25 459.1 372.5 456.97 373.92C454.84 375.34 452.89 376.1 451.04 376.25L450.51 376.29C448.99 376.41 447.58 376.15 446.28 375.51C443.72 374.25 442.03 371.84 441.22 368.23C440.82 366.42 440.66 364.57 440.76 362.69L440.8 361.92C441.03 357.52 442.33 353.47 444.74 349.82C445.98 347.95 447.46 346.44 449.16 345.31C450.86 344.18 452.62 343.49 454.38 343.29C457.7 342.92 460.19 343.33 461.83 344.53C462.8 345.24 463.16 346.54 462.93 348.39C462.52 351.68 461.56 353.37 460.07 353.52C459.16 353.61 458.18 352.81 457.13 351.1C456.08 349.39 454.84 348.58 453.43 348.73C451.74 348.91 450.24 350.51 448.94 353.47C448.22 355.12 447.72 357.63 447.46 360.95V361.08C447.21 364.19 447.62 366.64 448.65 368.48C449.68 370.31 451.11 371.14 452.95 370.99C453.98 370.9 455.27 370.49 456.84 369.75C458.41 369.01 459.37 368.61 459.67 368.59L459.66 368.58Z" fill="white"/>
<path d="M491.39 370.42C491.15 371.39 490.44 372.07 489.26 372.46C488.08 372.85 486.47 373.12 484.43 373.29C482.39 373.46 481.12 373.4 480.58 373.13C480.04 372.86 479.85 372.33 480.01 371.55C480.08 371.22 480.43 370.53 481.06 369.48C481.69 368.43 482.18 367.52 482.49 366.8C482.8 366.08 483.43 363.45 484.4 358.82C485.37 354.19 485.78 350.73 485.52 349.03C485.26 347.33 484.24 346.54 482.49 346.73C480.74 346.92 479.26 347.85 478.07 349.53C476.88 351.21 475.95 354.02 475.26 357.98C475.04 359.26 474.81 361.2 474.59 363.78C474.37 366.31 474.37 368.19 474.56 369.44C474.75 370.69 474.84 371.36 474.82 371.49C474.65 372.41 474.11 373.02 473.2 373.33C471.87 373.78 469.93 374.1 467.38 374.31C464.83 374.52 463.65 374.13 463.79 373.16C463.89 372.46 464.4 371.41 465.34 370.02C466.28 368.63 466.9 367.4 467.15 366.38C467.4 365.36 468.25 360.14 469.74 350.25C471.34 339.63 472.17 333.32 472.13 331.94C472.09 330.56 471.85 329.51 471.39 328.84C470.31 327.25 469.78 326.33 469.81 326.11C469.97 324.97 470.49 324.08 471.38 323.47C473.3 322.13 475.73 321.27 478.67 320.88C480.09 320.69 480.87 321.34 481.02 322.81C481.11 323.72 480.6 327.31 479.54 333.39C478.52 339.24 478.03 342.25 478.04 342.6C478.07 343.46 478.36 343.85 478.92 343.79C479.15 343.76 479.71 343.46 480.6 342.87C483.09 341.21 485.27 340.27 487.11 340.06C490.47 339.68 492.44 341.25 493.02 344.71C493.42 347.16 492.93 351.37 491.57 357.19C490.27 362.78 489.68 365.83 489.75 366.52C489.82 367.21 490.13 367.97 490.67 368.81C491.21 369.65 491.45 370.19 491.39 370.44V370.42Z" fill="white"/>
<path d="M505 359.24C504.36 361.5 504.64 363.35 505.83 364.8C506.7 365.89 508.08 366.35 509.97 366.19C510.83 366.12 512.2 365.7 514.1 364.94C516 364.18 517.11 363.78 517.38 363.75C518.18 363.68 518.4 364.19 518.04 365.27C517.61 366.54 516.13 367.9 513.62 369.35C511.14 370.78 508.82 371.58 506.62 371.75L505.49 371.84H505.36C503.98 371.96 502.68 371.73 501.44 371.16C498.99 370.06 497.61 367.86 497.31 364.52C497.1 362.18 497.28 359.88 497.85 357.63L498.26 356.04C498.86 353.68 499.77 351.33 501 349C503.36 344.49 506.42 341.01 510.17 338.63C512.44 337.2 514.66 336.36 516.81 336.12L517.49 336.04C520.69 335.68 522.97 336.73 524.3 339.17C524.99 340.46 525.3 342.06 525.26 343.95C525.22 345.84 524.86 347.72 524.2 349.66C523.54 351.6 522.4 352.9 520.77 353.63C518.49 354.65 514.69 355.42 509.36 355.93C507.95 356.06 506.94 356.38 506.34 356.88C505.74 357.38 505.3 358.16 504.99 359.23L505 359.24ZM515.46 341.38L514.63 341.47C513.42 341.6 512.03 342.57 510.46 344.35C508.89 346.13 507.83 348.1 507.2 350.32L507.04 350.9C506.79 351.79 507.04 352.2 507.79 352.12L508.04 352.16L510 351.97L510.15 351.92L514.89 351.1C515.19 351 515.39 350.94 515.48 350.94C516.43 350.85 517.11 350.15 517.52 348.85L517.91 347.63C518.44 345.96 518.47 344.47 517.99 343.16C517.51 341.85 516.67 341.25 515.47 341.38H515.46Z" fill="white"/>
<path d="M554.1 333.27C555.81 333.08 556.77 333.44 556.96 334.34C557.15 335.24 556.96 336.36 556.39 337.69C555.82 339.02 555.04 340.21 554.06 341.29C553.08 342.37 552.27 342.93 551.59 343C550.91 343.07 550.13 342.83 549.23 342.27C548.33 341.71 547.55 341.47 546.91 341.53C546.27 341.59 545.37 342.12 544.21 343.09C543.05 344.06 542.02 345.35 541.08 346.98C540.14 348.61 539.04 351.05 537.76 354.32C536.48 357.59 535.88 359.52 535.88 360.4C535.88 361.28 536.13 362.39 536.64 363.74C537.15 365.09 537.21 366.2 536.84 367.1C536.41 368.15 534.11 368.84 529.94 369.18L527.64 369.37H527.09C526.72 369.39 526.35 369.41 525.96 369.45H525.41C525.05 369.47 524.66 369.49 524.25 369.53C522.39 369.68 521.64 369.28 521.98 368.31C522.32 367.34 523.15 366.31 524.45 365.22C525.77 364.12 526.68 363.14 527.2 362.29C527.72 361.44 528.89 358.51 530.78 353.38C532.67 348.25 533.81 344.79 533.95 343.72C534.09 342.65 533.8 341.75 533.07 341.06C532.34 340.37 532.13 339.59 532.44 338.71C532.88 337.48 533.88 336.53 535.45 335.87C537.83 334.87 539.88 334.28 541.59 334.09C543.3 333.9 544.36 334.03 544.75 334.49C544.91 334.68 544.92 335.35 544.77 336.48C544.62 337.61 544.77 338.15 545.19 338.1C545.37 338.08 545.85 337.8 546.64 337.25C549.9 334.81 552.4 333.48 554.1 333.29V333.27Z" fill="white"/>
<defs>
<filter id="filter0_ddd_13_35855" x="124.79" y="281.04" width="507.63" height="136.094" filterUnits="userSpaceOnUse" color-interpolation-filters="sRGB">
<feFlood flood-opacity="0" result="BackgroundImageFix"/>
<feColorMatrix in="SourceAlpha" type="matrix" values="0 0 0 0 0 0 0 0 0 0 0 0 0 0 0 0 0 0 127 0" result="hardAlpha"/>
<feOffset dy="4"/>
<feGaussianBlur stdDeviation="2"/>
<feComposite in2="hardAlpha" operator="out"/>
<feColorMatrix type="matrix" values="0 0 0 0 0 0 0 0 0 0 0 0 0 0 0 0 0 0 0.25 0"/>
<feBlend mode="normal" in2="BackgroundImageFix" result="effect1_dropShadow_13_35855"/>
<feColorMatrix in="SourceAlpha" type="matrix" values="0 0 0 0 0 0 0 0 0 0 0 0 0 0 0 0 0 0 127 0" result="hardAlpha"/>
<feOffset dy="4"/>
<feGaussianBlur stdDeviation="2"/>
<feComposite in2="hardAlpha" operator="out"/>
<feColorMatrix type="matrix" values="0 0 0 0 0 0 0 0 0 0 0 0 0 0 0 0 0 0 0.25 0"/>
<feBlend mode="normal" in2="effect1_dropShadow_13_35855" result="effect2_dropShadow_13_35855"/>
<feColorMatrix in="SourceAlpha" type="matrix" values="0 0 0 0 0 0 0 0 0 0 0 0 0 0 0 0 0 0 127 0" result="hardAlpha"/>
<feOffset dy="4"/>
<feGaussianBlur stdDeviation="2"/>
<feComposite in2="hardAlpha" operator="out"/>
<feColorMatrix type="matrix" values="0 0 0 0 0 0 0 0 0 0 0 0 0 0 0 0 0 0 0.25 0"/>
<feBlend mode="normal" in2="effect2_dropShadow_13_35855" result="effect3_dropShadow_13_35855"/>
<feBlend mode="normal" in="SourceGraphic" in2="effect3_dropShadow_13_35855" result="shape"/>
</filter>
</defs>
</svg>
