<?xml version="1.0" encoding="UTF-8"?>
<svg id="Calque_1" data-name="Calque 1" xmlns="http://www.w3.org/2000/svg" viewBox="0 0 827.32 623.55">
  <defs>
    <style>
      .cls-1 {
        fill: #fff;
      }

      .cls-2 {
        fill: #220a0b;
      }

      .cls-3 {
        fill: #bdbec0;
      }

      .cls-4 {
        fill: #f08136;
      }
    </style>
  </defs>
  <path class="cls-4" d="M669.42,281.04c-7.08,24.77-7.13,23.76-7.13,23.76l-10.12,1.79s-40.78,65.03-59.89,77.06c-23.35,10.62-46.71,21.94-46.71,21.94,0,0-252.64,3.54-273.87,3.54s-53.08,.71-66.53-16.28c-13.44-16.98-27.6-46.71-27.6-46.71h-3.53l-4.25-11.32s428.86-24.06,499.63-53.78Z"/>
  <path id="Tracé_2" data-name="Tracé 2" class="cls-2" d="M345.87,380.78s-4.3,11.16-8.11,13.56c-3.81,2.4-12.12,.48-17.15,9.33-3.14,10.55-21.3,56.75-21.3,56.75,0,0,21.35,13.04,27.86,11.95,4.87-7.89,28.1-46.52,26.71-58.42-1.38-11.89-5.81-10.96-4.15-17.4s99.87-230.17,99.87-230.17c0,0-4.3-10.99-10-2.85-4.36,9.55-93.75,217.25-93.75,217.25Z"/>
  <path class="cls-3" d="M406.1,318.17l-8.15,.65c-.7-8.72-8.33-15.23-17.05-14.53-8.72,.7-15.23,8.33-14.53,17.05l-8.15,.65c-1.06-13.22,8.81-24.8,22.03-25.85,13.22-1.06,24.8,8.8,25.85,22.03Z"/>
  <g>
    <path class="cls-1" d="M439.53,341.49l.11,1.15c.19,1.97-.17,3-1.07,3.11-.08,0-1.27-.66-3.59-2.01s-4.32-1.94-5.94-1.75c-.53,.07-1.13,.43-1.78,1.09s-1.08,1.49-1.29,2.5-.14,2.73,.21,5.15c.68,4.68,2.07,6.85,4.22,6.62,.66-.07,1.43-.57,2.33-1.51s1.43-1.43,1.58-1.45c1.17-.13,1.97,1.7,2.38,5.41,.22,2,.11,3.41-.33,4.27-.19,.39-.44,.6-.75,.63s-.92-.15-1.83-.55-1.54-.58-1.88-.55c-1.4,.14-2.38,.69-2.94,1.65-.38,.65-.43,1.92-.15,3.81s.71,3.61,1.34,5.28,1.15,2.9,1.61,3.75,.69,1.28,.69,1.3c.13,.96-.52,1.5-1.94,1.61l-.7,.03-.71,.06c-3.37,.28-5.54,.26-6.5-.04-.64-.2-1.01-.63-1.13-1.3s.19-1.36,.93-2.07,1.11-1.55,1.11-2.49c0-.36-.64-4.31-1.96-12.17-1.4-8.34-2.39-13.56-2.9-15.28s-1.34-3.26-2.47-4.54-1.78-2.34-1.92-3.13,.16-1.34,.92-1.63c1.34-.54,4.86-1.18,10.6-1.91l2.58-.44,2.6-.33,.85-.07c3.19-.41,5.11-.36,5.74,.14,1.06,.85,1.72,2.75,2,5.65Z"/>
    <path class="cls-1" d="M452.18,379.04l-2.03,.17c-1.89,.15-3.02,.18-3.4,.07s-.61-.49-.66-1.15,.24-1.49,.87-2.49,1.03-2.02,1.14-3.01,.02-3.6-.29-7.9-.6-7.12-.83-7.93-.81-1.48-1.75-1.99-1.44-1.2-1.51-2.06,.29-1.55,1.08-2.05c1.82-1.12,3.88-1.82,6.18-2.08l.36-.04c.93-.1,1.49,.4,1.69,1.51,.11,.63,.34,4.41,.67,11.08,.32,6.37,.6,9.95,.85,10.96s.81,2.04,1.67,3.1,1.3,1.72,1.31,2v.34c.04,.67-1.76,1.16-5.37,1.45Zm-7.18-41.41c-.11-1.45,.17-2.73,.86-3.84s1.48-1.74,2.36-1.86l.81-.1c.26,.05,.47,.06,.64,.03,.81-.1,1.56,.36,2.24,1.39s1.04,2.03,1.09,3.01l.05,.98c-.02,.25-.03,.44-.02,.57,.05,1.04-.29,2.1-1.01,3.18s-1.54,1.65-2.46,1.76l-.75,.09c-.91,.11-1.72-.23-2.43-1s-1.12-1.73-1.21-2.86l-.08-.36-.07-.97Z"/>
    <path class="cls-1" d="M477.45,350.66c-.07,1.93-.21,3.21-.43,3.84s-.61,.97-1.17,1.03c-.91,.09-1.86-.71-2.86-2.43s-2.33-2.53-3.93-2.36c-.91,.1-1.63,.51-2.17,1.23-.53,.72-.79,1.47-.79,2.26,0,1.34,.47,2.4,1.39,3.19,.44,.37,1.86,1.13,4.25,2.27s4.05,2.37,5.04,3.71,1.42,3.19,1.32,5.57-.92,4.4-2.48,6.21-3.44,2.75-5.73,2.93l-1.17,.1c-2.85,.23-4.98-.03-6.41-.78-1.01-.52-1.54-1.93-1.6-4.24s.25-3.58,.92-3.64c.86-.08,1.94,.76,3.23,2.49s2.64,2.5,4.12,2.37c.9-.08,1.66-.39,2.29-.94s.96-1.37,.98-2.45-.41-2.04-1.28-2.83c-.47-.43-1.75-1.14-3.84-2.15s-3.61-2.05-4.53-3.12c-1.38-1.6-2.11-3.7-2.17-6.3s.69-4.98,2.3-6.96,3.58-3.16,5.82-3.41l.67-.08c3.55-.4,5.97-.15,7.23,.76,.73,.53,1.06,1.79,.99,3.75Z"/>
    <path class="cls-1" d="M500.66,368.58c.63-.06,.87,.47,.73,1.57s-1.29,2.35-3.42,3.77-4.08,2.18-5.93,2.33l-.53,.04c-1.52,.12-2.93-.14-4.23-.78-2.56-1.26-4.25-3.67-5.06-7.28-.4-1.81-.56-3.66-.46-5.54l.04-.77c.23-4.4,1.53-8.45,3.94-12.1,1.24-1.87,2.72-3.38,4.42-4.51s3.46-1.82,5.22-2.02c3.32-.37,5.81,.04,7.45,1.24,.97,.71,1.33,2.01,1.1,3.86-.41,3.29-1.37,4.98-2.86,5.13-.91,.09-1.89-.71-2.94-2.42s-2.29-2.52-3.7-2.37c-1.69,.18-3.19,1.78-4.49,4.74-.72,1.65-1.22,4.16-1.48,7.48v.13c-.25,3.11,.16,5.56,1.19,7.4,1.03,1.83,2.46,2.66,4.3,2.51,1.03-.09,2.32-.5,3.89-1.24s2.53-1.14,2.83-1.16Z"/>
    <path class="cls-1" d="M532.39,370.42c-.24,.97-.95,1.65-2.13,2.04s-2.79,.66-4.83,.83-3.31,.11-3.85-.16-.73-.8-.57-1.58c.07-.33,.42-1.02,1.05-2.07s1.12-1.96,1.43-2.68,.94-3.35,1.91-7.98,1.38-8.09,1.12-9.79-1.28-2.49-3.03-2.3c-1.75,.19-3.23,1.12-4.42,2.8s-2.12,4.49-2.81,8.45c-.22,1.28-.45,3.22-.67,5.8-.22,2.53-.22,4.41-.03,5.66s.28,1.92,.26,2.05c-.17,.92-.71,1.53-1.62,1.84-1.33,.45-3.27,.77-5.82,.98s-3.73-.18-3.59-1.15c.1-.7,.61-1.75,1.55-3.14s1.56-2.62,1.81-3.64,1.1-6.24,2.59-16.13c1.6-10.62,2.43-16.93,2.39-18.31s-.28-2.43-.74-3.1c-1.08-1.59-1.61-2.51-1.58-2.73,.16-1.14,.68-2.03,1.57-2.64,1.92-1.34,4.35-2.2,7.29-2.59,1.42-.19,2.2,.46,2.35,1.93,.09,.91-.42,4.5-1.48,10.58-1.02,5.85-1.51,8.86-1.5,9.21,.03,.86,.32,1.25,.88,1.19,.23-.03,.79-.33,1.68-.92,2.49-1.66,4.67-2.6,6.51-2.81,3.36-.38,5.33,1.19,5.91,4.65,.4,2.45-.09,6.66-1.45,12.48-1.3,5.59-1.89,8.64-1.82,9.33s.38,1.45,.92,2.29,.78,1.38,.72,1.63Z"/>
    <path class="cls-1" d="M546,359.24c-.64,2.26-.36,4.11,.83,5.56,.87,1.09,2.25,1.55,4.14,1.39,.86-.07,2.23-.49,4.13-1.25s3.01-1.16,3.28-1.19c.8-.07,1.02,.44,.66,1.52-.43,1.27-1.91,2.63-4.42,4.08-2.48,1.43-4.8,2.23-7,2.4l-1.13,.09h-.13c-1.38,.12-2.68-.11-3.92-.68-2.45-1.1-3.83-3.3-4.13-6.64-.21-2.34-.03-4.64,.54-6.89l.41-1.59c.6-2.36,1.51-4.71,2.74-7.04,2.36-4.51,5.42-7.99,9.17-10.37,2.27-1.43,4.49-2.27,6.64-2.51l.68-.08c3.2-.36,5.48,.69,6.81,3.13,.69,1.29,1,2.89,.96,4.78s-.4,3.77-1.06,5.71-1.8,3.24-3.43,3.97c-2.28,1.02-6.08,1.79-11.41,2.3-1.41,.13-2.42,.45-3.02,.95s-1.04,1.28-1.35,2.35Zm10.46-17.86l-.83,.09c-1.21,.13-2.6,1.1-4.17,2.88s-2.63,3.75-3.26,5.97l-.16,.58c-.25,.89,0,1.3,.75,1.22l.25,.04,1.96-.19,.15-.05,4.74-.82c.3-.1,.5-.16,.59-.16,.95-.09,1.63-.79,2.04-2.09l.39-1.22c.53-1.67,.56-3.16,.08-4.47s-1.32-1.91-2.52-1.78Z"/>
    <path class="cls-1" d="M595.1,333.27c1.71-.19,2.67,.17,2.86,1.07s0,2.02-.57,3.35-1.35,2.52-2.33,3.6-1.79,1.64-2.47,1.71-1.46-.17-2.36-.73-1.68-.8-2.32-.74-1.54,.59-2.7,1.56-2.19,2.26-3.13,3.89-2.04,4.07-3.32,7.34-1.88,5.2-1.88,6.08,.25,1.99,.76,3.34,.57,2.46,.2,3.36c-.43,1.05-2.73,1.74-6.9,2.08l-2.3,.19h-.55c-.37,.02-.74,.04-1.13,.08h-.55c-.36,.02-.75,.04-1.16,.08-1.86,.15-2.61-.25-2.27-1.22s1.17-2,2.47-3.09c1.32-1.1,2.23-2.08,2.75-2.93s1.69-3.78,3.58-8.91,3.03-8.59,3.17-9.66-.15-1.97-.88-2.66-.94-1.47-.63-2.35c.44-1.23,1.44-2.18,3.01-2.84,2.38-1,4.43-1.59,6.14-1.78s2.77-.06,3.16,.4c.16,.19,.17,.86,.02,1.99s0,1.67,.42,1.62c.18-.02,.66-.3,1.45-.85,3.26-2.44,5.76-3.77,7.46-3.96Z"/>
  </g>
</svg>