<svg width="787" height="661" viewBox="0 0 787 661" fill="none" xmlns="http://www.w3.org/2000/svg">
<g clip-path="url(#clip0_313_2)">
<path d="M207 236.81C213.8 234.5 219.66 229.95 224.85 224.91C230.04 219.87 234.71 214.28 239.98 209.33C249.22 200.64 260.17 194.05 269.71 185.7C271.11 184.47 272.51 183.18 273.47 181.56C273.47 181.56 265.91 183.32 262.26 184.68C256.01 186.99 249.76 189.31 243.51 191.62C237.86 193.71 232.19 195.82 226.96 198.85C221.74 201.88 216.95 205.92 213.84 211.17C212.56 213.33 211.58 215.65 210.47 217.9C208.59 221.71 206.33 225.31 203.99 228.84C202.83 230.59 201.66 232.33 200.46 234.06C199.57 235.33 198.7 236.58 200.6 237.35C202.57 238.16 205.09 237.46 207.01 236.81H207Z" fill="#3C4336"/>
<path d="M186.41 284.5C179.95 300.92 178.81 318.99 179.82 336.61C180.45 347.63 181.95 358.79 186.47 368.87C187.03 370.12 187.68 371.41 188.78 372.23C190.38 373.42 192.54 373.38 194.53 373.24C213.9 371.91 238.02 358.64 251.26 344.87C245.36 330.64 242.47 326.79 245.4 311.67C246.84 304.23 249.34 297.05 251.26 289.72C253.18 282.39 254.52 274.77 253.58 267.25C252.64 259.73 249.15 252.28 242.98 247.88C232.15 240.16 218.59 247.06 209.21 253.96C198.83 261.59 191.1 272.59 186.4 284.52L186.41 284.5Z" fill="#E5AA4A"/>
<path d="M185.32 324.47C183.11 308.8 184.83 292.71 189.2 277.49C179.72 299.95 176.56 325.05 180.19 349.16C180.97 354.32 182.08 359.52 184.64 364.07C186.95 368.15 190.63 371.77 195.21 373.14C198.47 374.11 205.94 373.59 205.23 368.48C204.99 366.75 203.04 365.36 201.93 364.19C200.18 362.35 198.73 360.42 197.38 358.26C194.38 353.46 191.9 348.33 189.95 343.01C187.75 337.02 186.2 330.78 185.31 324.46L185.32 324.47Z" fill="#D39A46"/>
<path d="M296.93 351.15C316.78 370.41 332.21 399.3 348.42 419.47C352.59 424.66 354.02 430.42 351.73 438.03C349.67 436.56 347.6 435.1 345.54 433.63C336.11 426.93 333.28 423.56 323.85 416.86C317.69 412.49 304.91 404.77 299.37 399.65C291.89 392.74 288.29 385.48 285.16 376C282.42 367.69 291.79 357.19 296.94 351.14L296.93 351.15Z" fill="#5B6654"/>
<path d="M187.5 366.15C188.18 370.9 192.04 374.46 195.65 377.61C199.45 380.92 203.33 384.28 207.96 386.28C213 388.46 218.62 388.88 224.11 389.06C245.65 389.76 267.3 387.13 288.05 381.3C277.23 404.72 281.16 388.48 276.36 413.83C283.28 414.65 284.33 425.44 291.25 426.27C296.14 411.82 318.45 375.34 319 355.66C302.53 345.25 282.07 346.67 262.59 346.52C253.65 346.45 244.7 346.59 235.76 346.87C228.88 347.09 225.67 354.08 219.14 356.25C208.8 359.69 196.37 361.23 192.39 371.38L187.51 366.16L187.5 366.15Z" fill="#66765E"/>
<path d="M291.02 373.47C292.91 370.3 295.21 367.37 297.83 364.77C284.51 373.06 269.43 378.51 253.89 380.67C250 381.21 246.04 381.55 242.14 381.03C240.22 380.78 238.24 380.27 236.77 379C233.62 376.26 234.06 371.22 235.59 367.33C237.43 362.65 240.43 358.81 244.11 355.44C244.81 354.8 247.35 353.12 246.57 351.8C245.95 350.76 242.12 351.89 241.08 352.08C236.49 352.91 232.02 354.28 227.69 356.01C219.16 359.42 211.23 364.18 203.65 369.33C200.42 371.52 197.2 373.82 194.22 376.35C194.69 376.78 195.17 377.2 195.65 377.61C199.45 380.92 203.33 384.28 207.96 386.28C213 388.46 218.62 388.88 224.11 389.06C245.65 389.76 267.3 387.13 288.05 381.3C279.94 398.84 280.12 394.13 278.7 401.32C279.92 401.32 281.14 401.33 282.37 401.36C282.86 401.37 283.38 401.38 283.82 401.17C284.41 400.88 284.75 400.25 285.04 399.66C290.35 388.89 293.71 377.05 300.75 367.31C297.51 369.36 294.27 371.42 291.03 373.47H291.02Z" fill="#5B6654"/>
<path d="M196.58 381.73C197.46 382.4 198.43 383.06 199.53 383.1C200.47 383.13 201.35 382.71 202.19 382.29C221.74 372.48 240.18 360.45 257.02 346.49C258.29 345.44 259.59 344.33 260.34 342.86C261.09 341.39 261.18 339.46 260.11 338.2C259.38 337.34 258.27 336.94 257.21 336.57C255.61 336.01 254 335.45 252.4 334.89C251.35 334.53 250.25 334.16 249.16 334.34C247.88 334.55 246.85 335.46 245.88 336.32C232.07 348.39 214.26 355.07 196.24 358.49C193.27 359.05 190.16 359.54 187.38 360.79C183.7 362.45 182.48 363.23 184.08 366.96C186.56 372.71 191.67 377.99 196.57 381.74L196.58 381.73Z" fill="#C48F41"/>
<path d="M202.48 279.98C200.69 286.09 199.96 297.69 200.14 304.06C200.47 315.44 204.34 326.09 206.92 337.17C207.16 338.19 207.43 339.27 208.16 340.03C208.86 340.77 209.88 341.11 210.85 341.41C233.6 348.47 257.47 351.9 281.29 351.53C282.25 347.85 282.71 344.03 282.64 340.23C267.47 332.04 250.48 327.25 233.26 326.34C234.91 316.63 236.62 301.81 236.4 291.97C236.05 276.07 233.58 271.32 223.72 268.18C213.26 264.85 204.81 271.99 202.47 279.98H202.48Z" fill="#D39A46"/>
<path d="M205.57 302.9C208.89 315.48 207.63 327.12 215.88 337.19C217.76 331.95 225.79 328.43 229.75 324.52C227.52 325.39 225.29 326.25 223.06 327.12C228.14 324.02 232.25 301.25 233.88 295.54C236.23 287.3 237.69 282.12 236.47 276.87C235.25 271.62 227.15 267.2 222.05 265.44C215.3 263.12 209.97 269.01 206.93 275.02C202.85 283.07 203.45 294.84 205.59 302.91L205.57 302.9Z" fill="#E5AA4A"/>
<path d="M234.24 328.35C247.09 326.79 260.25 327.79 272.72 331.27C276.55 332.34 280.4 333.68 283.55 336.12C283.86 336.36 284.17 336.62 284.33 336.98C284.54 337.45 284.45 338 284.36 338.5C283.92 340.92 283.47 343.35 283.03 345.77C274.3 347.24 265.38 346.71 256.54 346.18C246.02 345.55 235.31 344.88 225.44 341.18C223.48 340.45 216.01 338.15 215.02 336.31C213.33 333.14 221.77 332.9 223.92 331.5C227 329.49 230.64 328.77 234.24 328.33V328.35Z" fill="#E5AA4A"/>
<path d="M214.56 218.16C212.71 211 212.17 203.02 215.71 196.52C220.19 188.27 230.95 184.37 239.97 186.98C248.99 189.59 257.43 195.04 258.01 204.35C258.33 209.45 256.78 220.57 257.28 226.17C257.54 229.05 253.14 227.27 252.58 230.14C252.46 230.76 256.42 232.32 256.3 232.95C256 234.44 255.69 235.93 255.47 237.42C255.38 238.05 255.24 238.74 254.74 239.11C254.37 239.39 253.87 239.43 253.41 239.46C249.28 239.74 245.14 240.01 241.01 240.29C235.25 240.68 226.49 241.19 221.8 236.87C217.43 232.85 215.99 223.61 214.58 218.15L214.56 218.16Z" fill="#FAC9A6"/>
<path d="M218.43 237.84C218.45 237.13 218.43 236.37 218.8 235.75C219.65 234.3 221.84 234.47 223.54 234.84C228.01 235.82 232.47 236.9 237.03 237.35C241.52 237.8 248.93 236.81 250.14 238.94C249.39 241.64 246.48 246.74 250.07 251.78C250.83 252.85 251.52 254.18 251.18 255.43C250.8 256.85 249.11 257.48 247.61 257.73C243.86 258.35 240.01 257.9 236.23 257.44C229.07 256.57 221.8 255.68 215.18 252.88C214.27 252.49 213.32 252.03 212.82 251.19C212.08 249.95 212.91 249.44 213.67 248.74C214.64 247.85 215.44 246.82 216.11 245.69C217.53 243.31 218.36 240.59 218.45 237.84H218.43Z" fill="#C48F41"/>
<path d="M252.15 225.94C253.01 222.01 253.57 218.02 253.99 214.02C254.2 212.02 254.29 210 254.53 208C254.72 206.45 254.64 205.76 256.07 206.81C258.29 208.44 258.11 214.32 258.95 216.82C259.56 218.65 260.89 222.53 261.62 224.31C261.91 225.03 256.07 225.85 252.15 225.94Z" fill="#FAC9A6"/>
<path d="M253.08 204.46C254.03 203.27 254.57 201.77 254.58 200.26C252.86 203.22 250.02 205.42 247.12 207.33C242.64 210.28 237.83 212.77 232.8 214.73C233.79 214.1 234.63 213.26 235.26 212.29C232.94 215.74 226.08 225.73 222.99 228.57C217.14 229.51 215.34 225.54 215.16 224.16C214.87 221.93 211.55 211.5 211.8 209.27C212.59 202.4 216.46 194.76 221.43 191.41C233.58 183.23 234.13 183.88 237.05 183.66C245.52 183.04 256.8 192.76 257.42 194.39C258.91 198.32 255.25 201.74 253.08 204.45V204.46Z" fill="#754D29"/>
<path d="M253.14 208.28C253.61 208.13 254.24 208.05 254.48 208.48C254.63 208.75 254.52 209.1 254.31 209.32C254.1 209.54 253.81 209.67 253.53 209.79C251.45 210.67 249.36 211.55 247.28 212.43C245.45 213.2 243.55 213.98 241.56 213.9C242.08 213.92 243.71 212.41 244.28 212.13C245.03 211.76 245.84 211.53 246.58 211.14C248.71 210.03 250.83 209.01 253.13 208.28H253.14Z" fill="#574639"/>
<path d="M251.96 217.59C250.39 217.63 248.81 217.68 247.24 217.72C246.79 217.73 246.21 217.66 246.09 217.22C246.04 217.05 246.09 216.86 246.16 216.69C246.52 215.86 247.39 215.39 248.2 214.99C248.97 214.6 250.93 213.13 251.78 213.66C252.73 214.25 252.1 216.72 251.96 217.59Z" fill="white"/>
<path d="M249.75 215.2C249.55 215.93 249.56 216.7 249.56 217.45C249.8 217.62 250.11 217.63 250.4 217.63C250.8 217.63 251.21 217.63 251.61 217.63C251.69 217.63 251.77 217.63 251.84 217.59C251.9 217.55 251.93 217.49 251.97 217.43C252.37 216.7 252.58 215.86 252.56 215.02C252.56 214.64 252.5 214.25 252.28 213.94C251.27 212.55 250.02 214.19 249.74 215.19L249.75 215.2Z" fill="#574639"/>
<path opacity="0.15" d="M228.11 190.42C231.64 189.86 235.32 188.45 238.66 189.74C239.29 189.99 239.9 190.33 240.56 190.47C241.22 190.61 242 190.53 242.46 190.03C243.04 189.41 242.91 188.37 242.41 187.7C241.9 187.02 241.12 186.62 240.35 186.26C237.9 185.1 235.34 184.05 232.64 183.84C230.43 183.67 226.32 184.23 224.88 186.25C223.05 188.82 225.44 190.84 228.11 190.42Z" fill="white"/>
<path d="M296 335.51L767 94V96.84L300.604 337L296 335.51Z" fill="#574639"/>
<path d="M291.8 330.02C293.36 330.08 295.87 330.39 297.39 330.02C298.51 329.74 300.7 329.24 301.83 329.45C305.58 330.14 300.61 332.56 300.59 333.08C301.91 332.93 303.55 332.94 304.19 334.1C304.45 334.58 304.47 335.15 304.45 335.7C304.23 342.05 299.66 347.8 293.81 350.26C287.96 352.73 281.11 352.17 275.3 349.61C274.66 349.33 274.01 349.01 273.56 348.47C272.9 347.66 272.82 346.54 272.78 345.5C272.6 341.05 273.01 335.59 278.09 334.4C283.11 333.22 286.57 329.84 291.79 330.03L291.8 330.02Z" fill="#FAC9A6"/>
<path d="M264.74 335.44C263.85 340.06 263.27 344.74 262.99 349.44C262.94 350.28 262.94 351.23 263.55 351.81C264.02 352.26 264.73 352.35 265.38 352.41C268.81 352.74 272.23 353.06 275.66 353.39C277.76 353.59 280.29 353.59 281.45 351.83C281.87 351.19 282.02 350.41 282.17 349.66C282.86 346.04 283.54 342.42 284.23 338.8C284.54 337.19 284.81 335.38 283.88 334.02C282.65 332.21 280.08 332.18 277.98 331.6C275.22 330.84 272.04 328.25 269.02 328.93C266.22 329.57 265.22 333 264.75 335.44H264.74Z" fill="#C48F41"/>
<path d="M187.15 363.37C189.43 370.4 193.72 376.7 199.45 381.37C200 381.82 200.8 381.03 200.24 380.58C194.65 376.03 190.45 369.93 188.23 363.07C188.01 362.39 186.93 362.68 187.15 363.37Z" fill="#E5AA4A"/>
<path d="M193.03 363.9C195.38 369.33 198.64 374.33 202.64 378.68C203.13 379.21 203.92 378.42 203.43 377.89C199.49 373.6 196.3 368.68 193.99 363.34C193.71 362.68 192.74 363.25 193.03 363.9Z" fill="#E5AA4A"/>
<path d="M197.78 363.91C200.08 368.33 202.85 372.47 206.04 376.29C206.5 376.84 207.29 376.05 206.83 375.5C203.7 371.75 200.99 367.68 198.74 363.35C198.41 362.71 197.44 363.28 197.78 363.91Z" fill="#E5AA4A"/>
<path d="M207.63 364.68C209.65 367.12 211.54 369.66 213.3 372.29C213.7 372.88 214.67 372.33 214.26 371.73C212.45 369.02 210.5 366.41 208.42 363.89C207.96 363.34 207.18 364.13 207.63 364.68Z" fill="#E5AA4A"/>
<path d="M213.18 358.78C213.89 360.75 215.45 362.25 216.59 363.97C217.78 365.77 218.74 367.7 219.46 369.73C219.7 370.4 220.78 370.11 220.54 369.43C219.83 367.43 218.91 365.51 217.77 363.73C217.21 362.86 216.6 362.04 215.96 361.23C215.3 360.38 214.63 359.51 214.26 358.49C214.02 357.82 212.94 358.11 213.18 358.79V358.78Z" fill="#E5AA4A"/>
<path d="M218.38 357.36C219.68 358.8 220.87 360.34 221.91 361.98C222.41 362.77 222.89 363.58 223.33 364.4C223.56 364.84 223.79 365.28 224 365.73C224.1 365.94 224.2 366.15 224.3 366.37C224.35 366.48 224.4 366.58 224.44 366.69C224.49 366.81 224.51 367.03 224.61 366.82C224.72 366.73 224.83 366.65 224.94 366.56C224.92 366.56 224.9 366.56 224.88 366.57C225.02 366.59 225.17 366.61 225.31 366.63C225.29 366.62 225.27 366.6 225.25 366.59C225.34 366.7 225.42 366.81 225.51 366.92C225.51 366.9 225.5 366.88 225.49 366.86C225.44 367.04 225.39 367.22 225.35 367.4C225.36 367.39 225.38 367.38 225.39 367.37C225.93 366.89 225.13 366.1 224.6 366.58C224.59 366.59 224.57 366.6 224.56 366.61C224.42 366.73 224.35 366.98 224.42 367.15C224.59 367.58 225.11 367.86 225.5 367.49C225.93 367.07 225.57 366.47 225.38 366.04C224.87 364.89 224.29 363.77 223.66 362.68C222.39 360.49 220.87 358.44 219.18 356.56C218.7 356.03 217.91 356.82 218.39 357.35L218.38 357.36Z" fill="#E5AA4A"/>
<path d="M223.06 355.01C225.32 358.3 227.26 361.79 228.87 365.45C229.16 366.11 230.12 365.54 229.83 364.89C228.22 361.24 226.28 357.74 224.02 354.45C223.62 353.86 222.65 354.42 223.06 355.01Z" fill="#E5AA4A"/>
<path d="M228.96 356.92C230.29 358.72 231.45 360.64 232.43 362.66C232.56 362.93 232.95 363 233.19 362.86C233.47 362.7 233.52 362.37 233.39 362.1C232.41 360.08 231.25 358.16 229.92 356.36C229.74 356.12 229.44 356 229.16 356.16C228.92 356.3 228.78 356.68 228.96 356.92Z" fill="#E5AA4A"/>
<path d="M234.79 356.54C235.48 357.5 236.17 358.45 236.86 359.41C237.03 359.65 237.35 359.78 237.62 359.61C237.85 359.46 238 359.1 237.82 358.85C237.13 357.89 236.44 356.94 235.75 355.98C235.58 355.74 235.26 355.61 234.99 355.78C234.76 355.93 234.61 356.29 234.79 356.54Z" fill="#E5AA4A"/>
<path d="M235.61 350.27C237.07 352.77 238.53 355.27 239.99 357.77C240.35 358.39 241.32 357.83 240.95 357.21L236.57 349.71C236.21 349.09 235.24 349.65 235.61 350.27Z" fill="#E5AA4A"/>
<path d="M265.87 350.31C268.34 350.84 270.81 351.37 273.28 351.9C274.49 352.16 275.71 352.42 276.92 352.68C277.79 352.87 278.82 353.24 279.63 352.69C280.22 352.29 279.66 351.32 279.07 351.73C278.68 352 278.17 351.81 277.74 351.72C277.18 351.6 276.61 351.48 276.05 351.36C274.97 351.13 273.88 350.89 272.8 350.66C270.59 350.19 268.38 349.71 266.17 349.24C265.47 349.09 265.17 350.17 265.87 350.32V350.31Z" fill="#E5AA4A"/>
<path d="M266.43 347.4C270.58 348.88 274.91 349.79 279.31 350.13C280.03 350.19 280.02 349.07 279.31 349.01C275.01 348.67 270.79 347.76 266.73 346.32C266.05 346.08 265.76 347.16 266.43 347.4Z" fill="#E5AA4A"/>
<path d="M268.26 342.2C268.98 342.2 268.98 341.08 268.26 341.08C267.54 341.08 267.54 342.2 268.26 342.2Z" fill="#E5AA4A"/>
<path d="M268.24 342.32C271.59 342.76 274.95 343.2 278.3 343.64C279.01 343.73 279 342.62 278.3 342.52C274.95 342.08 271.59 341.64 268.24 341.2C267.53 341.11 267.54 342.22 268.24 342.32Z" fill="#E5AA4A"/>
<path d="M269.45 338.33C272.9 337.96 276.38 338.66 279.4 340.36C280.03 340.71 280.59 339.75 279.96 339.4C276.78 337.61 273.08 336.83 269.44 337.22C268.73 337.3 268.73 338.41 269.44 338.34L269.45 338.33Z" fill="#E5AA4A"/>
<path d="M270.11 333.57C273.86 333.13 277.62 334.14 280.65 336.39C281.23 336.82 281.78 335.85 281.21 335.43C278.05 333.07 274.02 331.99 270.11 332.45C269.4 332.53 269.4 333.65 270.11 333.57Z" fill="#E5AA4A"/>
<path d="M215.88 251.28C217.05 250.79 217.84 249.85 218.6 248.86C219.43 247.79 220.17 246.66 220.81 245.48C222.1 243.1 222.99 240.53 223.46 237.87C223.58 237.17 222.51 236.87 222.38 237.57C221.96 239.99 221.19 242.34 220.05 244.53C219.51 245.58 218.89 246.58 218.2 247.54C217.52 248.49 216.7 249.74 215.58 250.21C214.93 250.48 215.21 251.56 215.88 251.29V251.28Z" fill="#E5AA4A"/>
<path d="M221.49 252.58C222.21 252.58 222.21 251.46 221.49 251.46C220.77 251.46 220.77 252.58 221.49 252.58Z" fill="#E5AA4A"/>
<path d="M222.03 252.17C223 249.34 223.98 246.51 224.95 243.68C225.18 243 224.11 242.71 223.87 243.38C222.9 246.21 221.92 249.04 220.95 251.87C220.72 252.55 221.79 252.84 222.03 252.17Z" fill="#E5AA4A"/>
<path d="M226.66 254.22C227.89 250.15 228.47 245.9 228.37 241.65C228.35 240.93 227.24 240.93 227.25 241.65C227.35 245.81 226.79 249.94 225.58 253.92C225.37 254.61 226.45 254.9 226.66 254.22Z" fill="#E5AA4A"/>
<path d="M232.6 254.57C232.73 252.64 232.85 250.72 232.98 248.79C233 248.49 232.71 248.23 232.42 248.23C232.1 248.23 231.88 248.49 231.86 248.79C231.73 250.72 231.61 252.64 231.48 254.57C231.46 254.87 231.75 255.13 232.04 255.13C232.36 255.13 232.58 254.87 232.6 254.57Z" fill="#E5AA4A"/>
<path d="M237.02 255.76V251.68C237.02 250.96 235.9 250.96 235.9 251.68V255.76C235.9 256.48 237.02 256.48 237.02 255.76Z" fill="#E5AA4A"/>
<path d="M241.74 254.94C241.63 254.56 241.53 254.17 241.46 253.78C241.44 253.69 241.43 253.6 241.42 253.51C241.42 253.49 241.39 253.32 241.4 253.4C241.4 253.48 241.39 253.31 241.39 253.29C241.37 253.09 241.35 252.89 241.34 252.7C241.32 252.41 241.1 252.13 240.78 252.14C240.49 252.15 240.2 252.39 240.22 252.7C240.27 253.56 240.41 254.41 240.66 255.24C240.74 255.52 241.06 255.72 241.35 255.63C241.63 255.54 241.83 255.24 241.74 254.94Z" fill="#E5AA4A"/>
<path d="M228.94 215.53C248.12 201.79 255.57 188.66 273.46 181.56C262.16 184.06 249.19 187.91 239.43 181.69C229.11 175.11 218.64 172.32 211.27 180.6C203.73 189.09 207.86 203.28 209.88 208.44C211.46 212.49 207.48 220.25 205.97 224.32C204.47 228.36 199.59 234.29 199.47 235.93C202.61 231.87 211.28 230.77 215.06 227.35C219.98 222.89 223.47 219.43 228.93 215.52L228.94 215.53Z" fill="#66765E"/>
<path d="M230.66 194.2C227.38 196.18 223.6 197.9 219.82 197.24C215.4 196.48 212 192.4 211.26 187.98C210.67 184.46 211.69 181.73 212.96 178.94C212.38 179.44 211.82 179.99 211.27 180.6C203.73 189.09 207.86 203.28 209.88 208.44C211.46 212.49 207.48 220.25 205.97 224.32C204.47 228.36 199.59 234.29 199.47 235.93C202.61 231.87 206.98 227.87 210.76 224.44C210.84 224.37 210.92 224.29 211 224.22C211.3 218.81 213.44 213.5 216.48 208.95C220.29 203.26 225.44 198.62 230.65 194.18L230.66 194.2Z" fill="#535F4D"/>
<path opacity="0.15" d="M222.24 182.45C225.39 182.34 228.77 181.51 231.54 183C232.07 183.28 232.56 183.65 233.12 183.85C233.68 184.05 234.37 184.06 234.83 183.67C235.4 183.19 235.4 182.27 235.03 181.62C234.66 180.97 234.02 180.54 233.39 180.14C231.37 178.86 229.24 177.67 226.9 177.19C224.99 176.8 221.33 176.85 219.85 178.46C217.97 180.51 219.85 182.54 222.23 182.46L222.24 182.45Z" fill="white"/>
<path d="M726 116V540" stroke="black"/>
</g>
<g filter="url(#filter0_ddd_313_2)">
<path d="M628.42 318.04C621.34 342.81 621.29 341.8 621.29 341.8L611.17 343.59C611.17 343.59 570.39 408.62 551.28 420.65C527.93 431.27 504.57 442.59 504.57 442.59C504.57 442.59 251.93 446.13 230.7 446.13C209.47 446.13 177.62 446.84 164.17 429.85C150.73 412.87 136.57 383.14 136.57 383.14H133.04L128.79 371.82C128.79 371.82 557.65 347.76 628.42 318.04Z" fill="#F08136"/>
</g>
<path d="M185.731 403.512C185.731 403.512 174.645 407.999 170.289 406.858C165.933 405.717 161.656 398.338 151.758 400.714C141.91 405.632 95.7713 423.947 95.7713 423.947C95.7713 423.947 100.842 448.445 106.087 452.453C115.175 450.616 159.252 441.175 166.99 432.028C174.727 422.895 171.02 420.296 176.856 417.107C182.692 413.918 413.141 332.718 413.141 332.718C413.141 332.718 418.226 322.068 408.388 323.47C398.436 326.813 185.717 403.497 185.717 403.497L185.731 403.512Z" fill="#220A0B"/>
<path d="M365.1 355.17L356.95 355.82C356.25 347.1 348.62 340.59 339.9 341.29C331.18 341.99 324.67 349.62 325.37 358.34L317.22 358.99C316.16 345.77 326.03 334.19 339.25 333.14C352.47 332.08 364.05 341.94 365.1 355.17Z" fill="#BDBEC0"/>
<path d="M398.53 378.49L398.64 379.64C398.83 381.61 398.47 382.64 397.57 382.75C397.49 382.75 396.3 382.09 393.98 380.74C391.66 379.39 389.66 378.8 388.04 378.99C387.51 379.06 386.91 379.42 386.26 380.08C385.61 380.74 385.18 381.57 384.97 382.58C384.76 383.59 384.83 385.31 385.18 387.73C385.86 392.41 387.25 394.58 389.4 394.35C390.06 394.28 390.83 393.78 391.73 392.84C392.63 391.9 393.16 391.41 393.31 391.39C394.48 391.26 395.28 393.09 395.69 396.8C395.91 398.8 395.8 400.21 395.36 401.07C395.17 401.46 394.92 401.67 394.61 401.7C394.3 401.73 393.69 401.55 392.78 401.15C391.87 400.75 391.24 400.57 390.9 400.6C389.5 400.74 388.52 401.29 387.96 402.25C387.58 402.9 387.53 404.17 387.81 406.06C388.09 407.95 388.52 409.67 389.15 411.34C389.78 413.01 390.3 414.24 390.76 415.09C391.22 415.94 391.45 416.37 391.45 416.39C391.58 417.35 390.93 417.89 389.51 418L388.81 418.03L388.1 418.09C384.73 418.37 382.56 418.35 381.6 418.05C380.96 417.85 380.59 417.42 380.47 416.75C380.35 416.08 380.66 415.39 381.4 414.68C382.14 413.97 382.51 413.13 382.51 412.19C382.51 411.83 381.87 407.88 380.55 400.02C379.15 391.68 378.16 386.46 377.65 384.74C377.14 383.02 376.31 381.48 375.18 380.2C374.05 378.92 373.4 377.86 373.26 377.07C373.12 376.28 373.42 375.73 374.18 375.44C375.52 374.9 379.04 374.26 384.78 373.53L387.36 373.09L389.96 372.76L390.81 372.69C394 372.28 395.92 372.33 396.55 372.83C397.61 373.68 398.27 375.58 398.55 378.48L398.53 378.49Z" fill="white"/>
<path d="M411.18 416.04L409.15 416.21C407.26 416.36 406.13 416.39 405.75 416.28C405.37 416.17 405.14 415.79 405.09 415.13C405.04 414.47 405.33 413.64 405.96 412.64C406.59 411.64 406.99 410.62 407.1 409.63C407.21 408.64 407.12 406.03 406.81 401.73C406.5 397.43 406.21 394.61 405.98 393.8C405.75 392.99 405.17 392.32 404.23 391.81C403.29 391.3 402.79 390.61 402.72 389.75C402.65 388.89 403.01 388.2 403.8 387.7C405.62 386.58 407.68 385.88 409.98 385.62L410.34 385.58C411.27 385.48 411.83 385.98 412.03 387.09C412.14 387.72 412.37 391.5 412.7 398.17C413.02 404.54 413.3 408.12 413.55 409.13C413.8 410.14 414.36 411.17 415.22 412.23C416.08 413.29 416.52 413.95 416.53 414.23V414.57C416.57 415.24 414.77 415.73 411.16 416.02L411.18 416.04ZM404 374.63C403.89 373.18 404.17 371.9 404.86 370.79C405.55 369.68 406.34 369.05 407.22 368.93L408.03 368.83C408.29 368.88 408.5 368.89 408.67 368.86C409.48 368.76 410.23 369.22 410.91 370.25C411.59 371.28 411.95 372.28 412 373.26L412.05 374.24C412.03 374.49 412.02 374.68 412.03 374.81C412.08 375.85 411.74 376.91 411.02 377.99C410.3 379.07 409.48 379.64 408.56 379.75L407.81 379.84C406.9 379.95 406.09 379.61 405.38 378.84C404.67 378.07 404.26 377.11 404.17 375.98L404.09 375.62L404.02 374.65L404 374.63Z" fill="white"/>
<path d="M436.45 387.66C436.38 389.59 436.24 390.87 436.02 391.5C435.8 392.13 435.41 392.47 434.85 392.53C433.94 392.62 432.99 391.82 431.99 390.1C430.99 388.38 429.66 387.57 428.06 387.74C427.15 387.84 426.43 388.25 425.89 388.97C425.36 389.69 425.1 390.44 425.1 391.23C425.1 392.57 425.57 393.63 426.49 394.42C426.93 394.79 428.35 395.55 430.74 396.69C433.13 397.83 434.79 399.06 435.78 400.4C436.77 401.74 437.2 403.59 437.1 405.97C437 408.35 436.18 410.37 434.62 412.18C433.06 413.99 431.18 414.93 428.89 415.11L427.72 415.21C424.87 415.44 422.74 415.18 421.31 414.43C420.3 413.91 419.77 412.5 419.71 410.19C419.65 407.88 419.96 406.61 420.63 406.55C421.49 406.47 422.57 407.31 423.86 409.04C425.15 410.77 426.5 411.54 427.98 411.41C428.88 411.33 429.64 411.02 430.27 410.47C430.9 409.92 431.23 409.1 431.25 408.02C431.27 406.94 430.84 405.98 429.97 405.19C429.5 404.76 428.22 404.05 426.13 403.04C424.04 402.03 422.52 400.99 421.6 399.92C420.22 398.32 419.49 396.22 419.43 393.62C419.37 391.02 420.12 388.64 421.73 386.66C423.34 384.68 425.31 383.5 427.55 383.25L428.22 383.17C431.77 382.77 434.19 383.02 435.45 383.93C436.18 384.46 436.51 385.72 436.44 387.68L436.45 387.66Z" fill="white"/>
<path d="M459.66 405.58C460.29 405.52 460.53 406.05 460.39 407.15C460.25 408.25 459.1 409.5 456.97 410.92C454.84 412.34 452.89 413.1 451.04 413.25L450.51 413.29C448.99 413.41 447.58 413.15 446.28 412.51C443.72 411.25 442.03 408.84 441.22 405.23C440.82 403.42 440.66 401.57 440.76 399.69L440.8 398.92C441.03 394.52 442.33 390.47 444.74 386.82C445.98 384.95 447.46 383.44 449.16 382.31C450.86 381.18 452.62 380.49 454.38 380.29C457.7 379.92 460.19 380.33 461.83 381.53C462.8 382.24 463.16 383.54 462.93 385.39C462.52 388.68 461.56 390.37 460.07 390.52C459.16 390.61 458.18 389.81 457.13 388.1C456.08 386.39 454.84 385.58 453.43 385.73C451.74 385.91 450.24 387.51 448.94 390.47C448.22 392.12 447.72 394.63 447.46 397.95V398.08C447.21 401.19 447.62 403.64 448.65 405.48C449.68 407.31 451.11 408.14 452.95 407.99C453.98 407.9 455.27 407.49 456.84 406.75C458.41 406.01 459.37 405.61 459.67 405.59L459.66 405.58Z" fill="white"/>
<path d="M491.39 407.42C491.15 408.39 490.44 409.07 489.26 409.46C488.08 409.85 486.47 410.12 484.43 410.29C482.39 410.46 481.12 410.4 480.58 410.13C480.04 409.86 479.85 409.33 480.01 408.55C480.08 408.22 480.43 407.53 481.06 406.48C481.69 405.43 482.18 404.52 482.49 403.8C482.8 403.08 483.43 400.45 484.4 395.82C485.37 391.19 485.78 387.73 485.52 386.03C485.26 384.33 484.24 383.54 482.49 383.73C480.74 383.92 479.26 384.85 478.07 386.53C476.88 388.21 475.95 391.02 475.26 394.98C475.04 396.26 474.81 398.2 474.59 400.78C474.37 403.31 474.37 405.19 474.56 406.44C474.75 407.69 474.84 408.36 474.82 408.49C474.65 409.41 474.11 410.02 473.2 410.33C471.87 410.78 469.93 411.1 467.38 411.31C464.83 411.52 463.65 411.13 463.79 410.16C463.89 409.46 464.4 408.41 465.34 407.02C466.28 405.63 466.9 404.4 467.15 403.38C467.4 402.36 468.25 397.14 469.74 387.25C471.34 376.63 472.17 370.32 472.13 368.94C472.09 367.56 471.85 366.51 471.39 365.84C470.31 364.25 469.78 363.33 469.81 363.11C469.97 361.97 470.49 361.08 471.38 360.47C473.3 359.13 475.73 358.27 478.67 357.88C480.09 357.69 480.87 358.34 481.02 359.81C481.11 360.72 480.6 364.31 479.54 370.39C478.52 376.24 478.03 379.25 478.04 379.6C478.07 380.46 478.36 380.85 478.92 380.79C479.15 380.76 479.71 380.46 480.6 379.87C483.09 378.21 485.27 377.27 487.11 377.06C490.47 376.68 492.44 378.25 493.02 381.71C493.42 384.16 492.93 388.37 491.57 394.19C490.27 399.78 489.68 402.83 489.75 403.52C489.82 404.21 490.13 404.97 490.67 405.81C491.21 406.65 491.45 407.19 491.39 407.44V407.42Z" fill="white"/>
<path d="M505 396.24C504.36 398.5 504.64 400.35 505.83 401.8C506.7 402.89 508.08 403.35 509.97 403.19C510.83 403.12 512.2 402.7 514.1 401.94C516 401.18 517.11 400.78 517.38 400.75C518.18 400.68 518.4 401.19 518.04 402.27C517.61 403.54 516.13 404.9 513.62 406.35C511.14 407.78 508.82 408.58 506.62 408.75L505.49 408.84H505.36C503.98 408.96 502.68 408.73 501.44 408.16C498.99 407.06 497.61 404.86 497.31 401.52C497.1 399.18 497.28 396.88 497.85 394.63L498.26 393.04C498.86 390.68 499.77 388.33 501 386C503.36 381.49 506.42 378.01 510.17 375.63C512.44 374.2 514.66 373.36 516.81 373.12L517.49 373.04C520.69 372.68 522.97 373.73 524.3 376.17C524.99 377.46 525.3 379.06 525.26 380.95C525.22 382.84 524.86 384.72 524.2 386.66C523.54 388.6 522.4 389.9 520.77 390.63C518.49 391.65 514.69 392.42 509.36 392.93C507.95 393.06 506.94 393.38 506.34 393.88C505.74 394.38 505.3 395.16 504.99 396.23L505 396.24ZM515.46 378.38L514.63 378.47C513.42 378.6 512.03 379.57 510.46 381.35C508.89 383.13 507.83 385.1 507.2 387.32L507.04 387.9C506.79 388.79 507.04 389.2 507.79 389.12L508.04 389.16L510 388.97L510.15 388.92L514.89 388.1C515.19 388 515.39 387.94 515.48 387.94C516.43 387.85 517.11 387.15 517.52 385.85L517.91 384.63C518.44 382.96 518.47 381.47 517.99 380.16C517.51 378.85 516.67 378.25 515.47 378.38H515.46Z" fill="white"/>
<path d="M554.1 370.27C555.81 370.08 556.77 370.44 556.96 371.34C557.15 372.24 556.96 373.36 556.39 374.69C555.82 376.02 555.04 377.21 554.06 378.29C553.08 379.37 552.27 379.93 551.59 380C550.91 380.07 550.13 379.83 549.23 379.27C548.33 378.71 547.55 378.47 546.91 378.53C546.27 378.59 545.37 379.12 544.21 380.09C543.05 381.06 542.02 382.35 541.08 383.98C540.14 385.61 539.04 388.05 537.76 391.32C536.48 394.59 535.88 396.52 535.88 397.4C535.88 398.28 536.13 399.39 536.64 400.74C537.15 402.09 537.21 403.2 536.84 404.1C536.41 405.15 534.11 405.84 529.94 406.18L527.64 406.37H527.09C526.72 406.39 526.35 406.41 525.96 406.45H525.41C525.05 406.47 524.66 406.49 524.25 406.53C522.39 406.68 521.64 406.28 521.98 405.31C522.32 404.34 523.15 403.31 524.45 402.22C525.77 401.12 526.68 400.14 527.2 399.29C527.72 398.44 528.89 395.51 530.78 390.38C532.67 385.25 533.81 381.79 533.95 380.72C534.09 379.65 533.8 378.75 533.07 378.06C532.34 377.37 532.13 376.59 532.44 375.71C532.88 374.48 533.88 373.53 535.45 372.87C537.83 371.87 539.88 371.28 541.59 371.09C543.3 370.9 544.36 371.03 544.75 371.49C544.91 371.68 544.92 372.35 544.77 373.48C544.62 374.61 544.77 375.15 545.19 375.1C545.37 375.08 545.85 374.8 546.64 374.25C549.9 371.81 552.4 370.48 554.1 370.29V370.27Z" fill="white"/>
<defs>
<filter id="filter0_ddd_313_2" x="124.79" y="318.04" width="507.63" height="136.094" filterUnits="userSpaceOnUse" color-interpolation-filters="sRGB">
<feFlood flood-opacity="0" result="BackgroundImageFix"/>
<feColorMatrix in="SourceAlpha" type="matrix" values="0 0 0 0 0 0 0 0 0 0 0 0 0 0 0 0 0 0 127 0" result="hardAlpha"/>
<feOffset dy="4"/>
<feGaussianBlur stdDeviation="2"/>
<feComposite in2="hardAlpha" operator="out"/>
<feColorMatrix type="matrix" values="0 0 0 0 0 0 0 0 0 0 0 0 0 0 0 0 0 0 0.25 0"/>
<feBlend mode="normal" in2="BackgroundImageFix" result="effect1_dropShadow_313_2"/>
<feColorMatrix in="SourceAlpha" type="matrix" values="0 0 0 0 0 0 0 0 0 0 0 0 0 0 0 0 0 0 127 0" result="hardAlpha"/>
<feOffset dy="4"/>
<feGaussianBlur stdDeviation="2"/>
<feComposite in2="hardAlpha" operator="out"/>
<feColorMatrix type="matrix" values="0 0 0 0 0 0 0 0 0 0 0 0 0 0 0 0 0 0 0.25 0"/>
<feBlend mode="normal" in2="effect1_dropShadow_313_2" result="effect2_dropShadow_313_2"/>
<feColorMatrix in="SourceAlpha" type="matrix" values="0 0 0 0 0 0 0 0 0 0 0 0 0 0 0 0 0 0 127 0" result="hardAlpha"/>
<feOffset dy="4"/>
<feGaussianBlur stdDeviation="2"/>
<feComposite in2="hardAlpha" operator="out"/>
<feColorMatrix type="matrix" values="0 0 0 0 0 0 0 0 0 0 0 0 0 0 0 0 0 0 0.25 0"/>
<feBlend mode="normal" in2="effect2_dropShadow_313_2" result="effect3_dropShadow_313_2"/>
<feBlend mode="normal" in="SourceGraphic" in2="effect3_dropShadow_313_2" result="shape"/>
</filter>
<clipPath id="clip0_313_2">
<rect width="632.31" height="545.1" fill="white" transform="translate(94)"/>
</clipPath>
</defs>
</svg>
