<?xml version="1.0" standalone="no"?>
<!DOCTYPE svg PUBLIC "-//W3C//DTD SVG 20010904//EN"
 "http://www.w3.org/TR/2001/REC-SVG-20010904/DTD/svg10.dtd">
<svg version="1.0" xmlns="http://www.w3.org/2000/svg"
 width="128.000000pt" height="128.000000pt" viewBox="0 0 128.000000 128.000000"
 preserveAspectRatio="xMidYMid meet">

<g transform="translate(0.000000,128.000000) scale(0.100000,-0.100000)"
fill="#000000" stroke="none">
<path d="M0 1253 c1 -24 2 -25 11 -11 5 10 17 22 27 27 14 9 13 10 -10 11 -24
0 -28 -4 -28 -27z"/>
<path d="M1242 1269 c10 -5 22 -17 27 -27 9 -14 10 -13 11 11 0 23 -4 27 -27
27 -24 -1 -25 -2 -11 -11z"/>
<path d="M0 926 l0 -129 21 27 20 26 599 0 599 0 20 -26 21 -27 0 129 c-1 101
-3 125 -12 109 -6 -11 -16 -23 -22 -27 -14 -10 -1198 -10 -1212 0 -6 4 -16 16
-22 27 -9 16 -11 -8 -12 -109z"/>
<path d="M0 500 l0 -120 20 20 c20 20 33 20 620 20 587 0 600 0 620 -20 20
-20 20 -20 20 100 l0 119 -25 -24 -24 -25 -591 0 -591 0 -24 25 -25 24 0 -119z"/>
<path d="M0 96 l0 -96 640 0 640 0 0 96 0 96 -19 -23 -19 -24 -602 0 -602 0
-19 24 -19 23 0 -96z"/>
</g>
</svg>
