<svg width="496" height="207" viewBox="0 0 496 207" fill="none" xmlns="http://www.w3.org/2000/svg">
<rect x="73" y="120.458" width="354" height="85.3729" fill="white"/>
<path d="M496 145.602C496 179.511 452.348 207 398.5 207C344.652 207 301 179.511 301 145.602C301 111.692 344.652 84.2034 398.5 84.2034C452.348 84.2034 496 111.692 496 145.602Z" fill="white"/>
<ellipse cx="175" cy="101.161" rx="93" ry="101.161" fill="white"/>
<ellipse cx="93" cy="125.136" rx="93" ry="81.8644" fill="white"/>
<path d="M399 83.6186C399 120.757 357.81 150.864 307 150.864C256.19 150.864 215 120.757 215 83.6186C215 46.4798 256.19 16.3728 307 16.3728C357.81 16.3728 399 46.4798 399 83.6186Z" fill="white"/>
</svg>
