<?xml version="1.0" encoding="UTF-8"?>
<svg id="Calque_1" data-name="Calque 1" xmlns="http://www.w3.org/2000/svg" viewBox="0 0 632.31 545.1">
  <defs>
    <style>
      .cls-1, .cls-2 {
        fill: #fff;
      }

      .cls-3 {
        fill: #d39a46;
      }

      .cls-4 {
        fill: #5b6654;
      }

      .cls-5 {
        fill: #535f4d;
      }

      .cls-6 {
        fill: #754d29;
      }

      .cls-7 {
        fill: #574639;
      }

      .cls-8 {
        fill: #fac9a6;
      }

      .cls-9 {
        fill: #c48f41;
      }

      .cls-10 {
        fill: #e5aa4a;
      }

      .cls-2 {
        opacity: .15;
      }

      .cls-11 {
        fill: #3c4336;
      }

      .cls-12 {
        fill: #66765e;
      }
    </style>
  </defs>
  <path class="cls-11" d="M113,236.81c6.8-2.31,12.66-6.86,17.85-11.9,5.19-5.04,9.86-10.63,15.13-15.58,9.24-8.69,20.19-15.28,29.73-23.63,1.4-1.23,2.8-2.52,3.76-4.14,0,0-7.56,1.76-11.21,3.12-6.25,2.31-12.5,4.63-18.75,6.94-5.65,2.09-11.32,4.2-16.55,7.23-5.22,3.03-10.01,7.07-13.12,12.32-1.28,2.16-2.26,4.48-3.37,6.73-1.88,3.81-4.14,7.41-6.48,10.94-1.16,1.75-2.33,3.49-3.53,5.22-.89,1.27-1.76,2.52,.14,3.29,1.97,.81,4.49,.11,6.41-.54Z"/>
  <path class="cls-10" d="M92.41,284.5c-6.46,16.42-7.6,34.49-6.59,52.11,.63,11.02,2.13,22.18,6.65,32.26,.56,1.25,1.21,2.54,2.31,3.36,1.6,1.19,3.76,1.15,5.75,1.01,19.37-1.33,43.49-14.6,56.73-28.37-5.9-14.23-8.79-18.08-5.86-33.2,1.44-7.44,3.94-14.62,5.86-21.95,1.92-7.33,3.26-14.95,2.32-22.47-.94-7.52-4.43-14.97-10.6-19.37-10.83-7.72-24.39-.82-33.77,6.08-10.38,7.63-18.11,18.63-22.81,30.56Z"/>
  <path class="cls-3" d="M91.32,324.47c-2.21-15.67-.49-31.76,3.88-46.98-9.48,22.46-12.64,47.56-9.01,71.67,.78,5.16,1.89,10.36,4.45,14.91,2.31,4.08,5.99,7.7,10.57,9.07,3.26,.97,10.73,.45,10.02-4.66-.24-1.73-2.19-3.12-3.3-4.29-1.75-1.84-3.2-3.77-4.55-5.93-3-4.8-5.48-9.93-7.43-15.25-2.2-5.99-3.75-12.23-4.64-18.55Z"/>
  <path class="cls-4" d="M202.93,351.15c19.85,19.26,35.28,48.15,51.49,68.32,4.17,5.19,5.6,10.95,3.31,18.56-2.06-1.47-4.13-2.93-6.19-4.4-9.43-6.7-12.26-10.07-21.69-16.77-6.16-4.37-18.94-12.09-24.48-17.21-7.48-6.91-11.08-14.17-14.21-23.65-2.74-8.31,6.63-18.81,11.78-24.86Z"/>
  <path class="cls-12" d="M93.5,366.15c.68,4.75,4.54,8.31,8.15,11.46,3.8,3.31,7.68,6.67,12.31,8.67,5.04,2.18,10.66,2.6,16.15,2.78,21.54,.7,43.19-1.93,63.94-7.76-10.82,23.42-6.89,7.18-11.69,32.53,6.92,.82,7.97,11.61,14.89,12.44,4.89-14.45,27.2-50.93,27.75-70.61-16.47-10.41-36.93-8.99-56.41-9.14-8.94-.07-17.89,.07-26.83,.35-6.88,.22-10.09,7.21-16.62,9.38-10.34,3.44-22.77,4.98-26.75,15.13l-4.88-5.22Z"/>
  <path class="cls-4" d="M197.02,373.47c1.89-3.17,4.19-6.1,6.81-8.7-13.32,8.29-28.4,13.74-43.94,15.9-3.89,.54-7.85,.88-11.75,.36-1.92-.25-3.9-.76-5.37-2.03-3.15-2.74-2.71-7.78-1.18-11.67,1.84-4.68,4.84-8.52,8.52-11.89,.7-.64,3.24-2.32,2.46-3.64-.62-1.04-4.45,.09-5.49,.28-4.59,.83-9.06,2.2-13.39,3.93-8.53,3.41-16.46,8.17-24.04,13.32-3.23,2.19-6.45,4.49-9.43,7.02,.47,.43,.95,.85,1.43,1.26,3.8,3.31,7.68,6.67,12.31,8.67,5.04,2.18,10.66,2.6,16.15,2.78,21.54,.7,43.19-1.93,63.94-7.76-8.11,17.54-7.93,12.83-9.35,20.02,1.22,0,2.44,.01,3.67,.04,.49,.01,1.01,.02,1.45-.19,.59-.29,.93-.92,1.22-1.51,5.31-10.77,8.67-22.61,15.71-32.35-3.24,2.05-6.48,4.11-9.72,6.16Z"/>
  <path class="cls-9" d="M102.58,381.73c.88,.67,1.85,1.33,2.95,1.37,.94,.03,1.82-.39,2.66-.81,19.55-9.81,37.99-21.84,54.83-35.8,1.27-1.05,2.57-2.16,3.32-3.63,.75-1.47,.84-3.4-.23-4.66-.73-.86-1.84-1.26-2.9-1.63-1.6-.56-3.21-1.12-4.81-1.68-1.05-.36-2.15-.73-3.24-.55-1.28,.21-2.31,1.12-3.28,1.98-13.81,12.07-31.62,18.75-49.64,22.17-2.97,.56-6.08,1.05-8.86,2.3-3.68,1.66-4.9,2.44-3.3,6.17,2.48,5.75,7.59,11.03,12.49,14.78Z"/>
  <path class="cls-3" d="M108.48,279.98c-1.79,6.11-2.52,17.71-2.34,24.08,.33,11.38,4.2,22.03,6.78,33.11,.24,1.02,.51,2.1,1.24,2.86,.7,.74,1.72,1.08,2.69,1.38,22.75,7.06,46.62,10.49,70.44,10.12,.96-3.68,1.42-7.5,1.35-11.3-15.17-8.19-32.16-12.98-49.38-13.89,1.65-9.71,3.36-24.53,3.14-34.37-.35-15.9-2.82-20.65-12.68-23.79-10.46-3.33-18.91,3.81-21.25,11.8Z"/>
  <path class="cls-10" d="M111.57,302.9c3.32,12.58,2.06,24.22,10.31,34.29,1.88-5.24,9.91-8.76,13.87-12.67-2.23,.87-4.46,1.73-6.69,2.6,5.08-3.1,9.19-25.87,10.82-31.58,2.35-8.24,3.81-13.42,2.59-18.67s-9.32-9.67-14.42-11.43c-6.75-2.32-12.08,3.57-15.12,9.58-4.08,8.05-3.48,19.82-1.34,27.89Z"/>
  <path class="cls-10" d="M140.24,328.35c12.85-1.56,26.01-.56,38.48,2.92,3.83,1.07,7.68,2.41,10.83,4.85,.31,.24,.62,.5,.78,.86,.21,.47,.12,1.02,.03,1.52-.44,2.42-.89,4.85-1.33,7.27-8.73,1.47-17.65,.94-26.49,.41-10.52-.63-21.23-1.3-31.1-5-1.96-.73-9.43-3.03-10.42-4.87-1.69-3.17,6.75-3.41,8.9-4.81,3.08-2.01,6.72-2.73,10.32-3.17Z"/>
  <path class="cls-8" d="M120.56,218.16c-1.85-7.16-2.39-15.14,1.15-21.64,4.48-8.25,15.24-12.15,24.26-9.54,9.02,2.61,17.46,8.06,18.04,17.37,.32,5.1-1.23,16.22-.73,21.82,.26,2.88-4.14,1.1-4.7,3.97-.12,.62,3.84,2.18,3.72,2.81-.3,1.49-.61,2.98-.83,4.47-.09,.63-.23,1.32-.73,1.69-.37,.28-.87,.32-1.33,.35-4.13,.28-8.27,.55-12.4,.83-5.76,.39-14.52,.9-19.21-3.42-4.37-4.02-5.81-13.26-7.22-18.72Z"/>
  <path class="cls-9" d="M124.43,237.84c.02-.71,0-1.47,.37-2.09,.85-1.45,3.04-1.28,4.74-.91,4.47,.98,8.93,2.06,13.49,2.51,4.49,.45,11.9-.54,13.11,1.59-.75,2.7-3.66,7.8-.07,12.84,.76,1.07,1.45,2.4,1.11,3.65-.38,1.42-2.07,2.05-3.57,2.3-3.75,.62-7.6,.17-11.38-.29-7.16-.87-14.43-1.76-21.05-4.56-.91-.39-1.86-.85-2.36-1.69-.74-1.24,.09-1.75,.85-2.45,.97-.89,1.77-1.92,2.44-3.05,1.42-2.38,2.25-5.1,2.34-7.85Z"/>
  <path class="cls-8" d="M158.15,225.94c.86-3.93,1.42-7.92,1.84-11.92,.21-2,.3-4.02,.54-6.02,.19-1.55,.11-2.24,1.54-1.19,2.22,1.63,2.04,7.51,2.88,10.01,.61,1.83,1.94,5.71,2.67,7.49,.29,.72-5.55,1.54-9.47,1.63Z"/>
  <path class="cls-6" d="M159.08,204.46c.95-1.19,1.49-2.69,1.5-4.2-1.72,2.96-4.56,5.16-7.46,7.07-4.48,2.95-9.29,5.44-14.32,7.4,.99-.63,1.83-1.47,2.46-2.44-2.32,3.45-9.18,13.44-12.27,16.28-5.85,.94-7.65-3.03-7.83-4.41-.29-2.23-3.61-12.66-3.36-14.89,.79-6.87,4.66-14.51,9.63-17.86,12.15-8.18,12.7-7.53,15.62-7.75,8.47-.62,19.75,9.1,20.37,10.73,1.49,3.93-2.17,7.35-4.34,10.06Z"/>
  <path class="cls-7" d="M159.14,208.28c.47-.15,1.1-.23,1.34,.2,.15,.27,.04,.62-.17,.84-.21,.22-.5,.35-.78,.47-2.08,.88-4.17,1.76-6.25,2.64-1.83,.77-3.73,1.55-5.72,1.47,.52,.02,2.15-1.49,2.72-1.77,.75-.37,1.56-.6,2.3-.99,2.13-1.11,4.25-2.13,6.55-2.86Z"/>
  <path class="cls-1" d="M157.96,217.59c-1.57,.04-3.15,.09-4.72,.13-.45,.01-1.03-.06-1.15-.5-.05-.17,0-.36,.07-.53,.36-.83,1.23-1.3,2.04-1.7,.77-.39,2.73-1.86,3.58-1.33,.95,.59,.32,3.06,.18,3.93Z"/>
  <path class="cls-7" d="M155.75,215.2c-.2,.73-.19,1.5-.19,2.25,.24,.17,.55,.18,.84,.18,.4,0,.81,0,1.21,0,.08,0,.16,0,.23-.04,.06-.04,.09-.1,.13-.16,.4-.73,.61-1.57,.59-2.41,0-.38-.06-.77-.28-1.08-1.01-1.39-2.26,.25-2.54,1.25Z"/>
  <path class="cls-2" d="M134.11,190.42c3.53-.56,7.21-1.97,10.55-.68,.63,.25,1.24,.59,1.9,.73s1.44,.06,1.9-.44c.58-.62,.45-1.66-.05-2.33-.51-.68-1.29-1.08-2.06-1.44-2.45-1.16-5.01-2.21-7.71-2.42-2.21-.17-6.32,.39-7.76,2.41-1.83,2.57,.56,4.59,3.23,4.17Z"/>
  <polygon class="cls-7" points="164.05 355.43 611.15 112.22 611.15 115.08 168.42 356.93 164.05 355.43"/>
  <path class="cls-8" d="M197.8,330.02c1.56,.06,4.07,.37,5.59,0,1.12-.28,3.31-.78,4.44-.57,3.75,.69-1.22,3.11-1.24,3.63,1.32-.15,2.96-.14,3.6,1.02,.26,.48,.28,1.05,.26,1.6-.22,6.35-4.79,12.1-10.64,14.56-5.85,2.47-12.7,1.91-18.51-.65-.64-.28-1.29-.6-1.74-1.14-.66-.81-.74-1.93-.78-2.97-.18-4.45,.23-9.91,5.31-11.1,5.02-1.18,8.48-4.56,13.7-4.37Z"/>
  <path class="cls-9" d="M170.74,335.44c-.89,4.62-1.47,9.3-1.75,14-.05,.84-.05,1.79,.56,2.37,.47,.45,1.18,.54,1.83,.6,3.43,.33,6.85,.65,10.28,.98,2.1,.2,4.63,.2,5.79-1.56,.42-.64,.57-1.42,.72-2.17,.69-3.62,1.37-7.24,2.06-10.86,.31-1.61,.58-3.42-.35-4.78-1.23-1.81-3.8-1.84-5.9-2.42-2.76-.76-5.94-3.35-8.96-2.67-2.8,.64-3.8,4.07-4.27,6.51Z"/>
  <path class="cls-10" d="M93.15,363.37c2.28,7.03,6.57,13.33,12.3,18,.55,.45,1.35-.34,.79-.79-5.59-4.55-9.79-10.65-12.01-17.51-.22-.68-1.3-.39-1.08,.3h0Z"/>
  <path class="cls-10" d="M99.03,363.9c2.35,5.43,5.61,10.43,9.61,14.78,.49,.53,1.28-.26,.79-.79-3.94-4.29-7.13-9.21-9.44-14.55-.28-.66-1.25-.09-.96,.56h0Z"/>
  <path class="cls-10" d="M103.78,363.91c2.3,4.42,5.07,8.56,8.26,12.38,.46,.55,1.25-.24,.79-.79-3.13-3.75-5.84-7.82-8.09-12.15-.33-.64-1.3-.07-.96,.56h0Z"/>
  <path class="cls-10" d="M113.63,364.68c2.02,2.44,3.91,4.98,5.67,7.61,.4,.59,1.37,.04,.96-.56-1.81-2.71-3.76-5.32-5.84-7.84-.46-.55-1.24,.24-.79,.79h0Z"/>
  <path class="cls-10" d="M119.18,358.78c.71,1.97,2.27,3.47,3.41,5.19,1.19,1.8,2.15,3.73,2.87,5.76,.24,.67,1.32,.38,1.08-.3-.71-2-1.63-3.92-2.77-5.7-.56-.87-1.17-1.69-1.81-2.5-.66-.85-1.33-1.72-1.7-2.74-.24-.67-1.32-.38-1.08,.3h0Z"/>
  <path class="cls-10" d="M124.38,357.36c1.3,1.44,2.49,2.98,3.53,4.62,.5,.79,.98,1.6,1.42,2.42,.23,.44,.46,.88,.67,1.33,.1,.21,.2,.42,.3,.64,.05,.11,.1,.21,.14,.32,.05,.12,.07,.34,.17,.13,.11-.09,.22-.17,.33-.26-.02,0-.04,0-.06,.01,.14,.02,.29,.04,.43,.06-.02-.01-.04-.03-.06-.04,.09,.11,.17,.22,.26,.33,0-.02-.01-.04-.02-.06-.05,.18-.1,.36-.14,.54,.01-.01,.03-.02,.04-.03,.54-.48-.26-1.27-.79-.79-.01,.01-.03,.02-.04,.03-.14,.12-.21,.37-.14,.54,.17,.43,.69,.71,1.08,.34,.43-.42,.07-1.02-.12-1.45-.51-1.15-1.09-2.27-1.72-3.36-1.27-2.19-2.79-4.24-4.48-6.12-.48-.53-1.27,.26-.79,.79h0Z"/>
  <path class="cls-10" d="M129.06,355.01c2.26,3.29,4.2,6.78,5.81,10.44,.29,.66,1.25,.09,.96-.56-1.61-3.65-3.55-7.15-5.81-10.44-.4-.59-1.37-.03-.96,.56h0Z"/>
  <path class="cls-10" d="M134.96,356.92c1.33,1.8,2.49,3.72,3.47,5.74,.13,.27,.52,.34,.76,.2,.28-.16,.33-.49,.2-.76-.98-2.02-2.14-3.94-3.47-5.74-.18-.24-.48-.36-.76-.2-.24,.14-.38,.52-.2,.76h0Z"/>
  <path class="cls-10" d="M140.79,356.54c.69,.96,1.38,1.91,2.07,2.87,.17,.24,.49,.37,.76,.2,.23-.15,.38-.51,.2-.76-.69-.96-1.38-1.91-2.07-2.87-.17-.24-.49-.37-.76-.2-.23,.15-.38,.51-.2,.76h0Z"/>
  <path class="cls-10" d="M141.61,350.27c1.46,2.5,2.92,5,4.38,7.5,.36,.62,1.33,.06,.96-.56l-4.38-7.5c-.36-.62-1.33-.06-.96,.56h0Z"/>
  <path class="cls-10" d="M171.87,350.31c2.47,.53,4.94,1.06,7.41,1.59,1.21,.26,2.43,.52,3.64,.78,.87,.19,1.9,.56,2.71,.01,.59-.4,.03-1.37-.56-.96-.39,.27-.9,.08-1.33-.01-.56-.12-1.13-.24-1.69-.36-1.08-.23-2.17-.47-3.25-.7-2.21-.47-4.42-.95-6.63-1.42-.7-.15-1,.93-.3,1.08h0Z"/>
  <path class="cls-10" d="M172.43,347.4c4.15,1.48,8.48,2.39,12.88,2.73,.72,.06,.71-1.06,0-1.12-4.3-.34-8.52-1.25-12.58-2.69-.68-.24-.97,.84-.3,1.08h0Z"/>
  <path class="cls-10" d="M174.26,342.2c.72,0,.72-1.12,0-1.12s-.72,1.12,0,1.12h0Z"/>
  <path class="cls-10" d="M174.24,342.32c3.35,.44,6.71,.88,10.06,1.32,.71,.09,.7-1.02,0-1.12-3.35-.44-6.71-.88-10.06-1.32-.71-.09-.7,1.02,0,1.12h0Z"/>
  <path class="cls-10" d="M175.45,338.33c3.45-.37,6.93,.33,9.95,2.03,.63,.35,1.19-.61,.56-.96-3.18-1.79-6.88-2.57-10.52-2.18-.71,.08-.71,1.19,0,1.12h0Z"/>
  <path class="cls-10" d="M176.11,333.57c3.75-.44,7.51,.57,10.54,2.82,.58,.43,1.13-.54,.56-.96-3.16-2.36-7.19-3.44-11.1-2.98-.71,.08-.71,1.2,0,1.12h0Z"/>
  <path class="cls-10" d="M121.88,251.28c1.17-.49,1.96-1.43,2.72-2.42,.83-1.07,1.57-2.2,2.21-3.38,1.29-2.38,2.18-4.95,2.65-7.61,.12-.7-.95-1-1.08-.3-.42,2.42-1.19,4.77-2.33,6.96-.54,1.05-1.16,2.05-1.85,3.01-.68,.95-1.5,2.2-2.62,2.67-.65,.27-.37,1.35,.3,1.08h0Z"/>
  <path class="cls-10" d="M127.49,252.58c.72,0,.72-1.12,0-1.12s-.72,1.12,0,1.12h0Z"/>
  <path class="cls-10" d="M128.03,252.17c.97-2.83,1.95-5.66,2.92-8.49,.23-.68-.84-.97-1.08-.3-.97,2.83-1.95,5.66-2.92,8.49-.23,.68,.84,.97,1.08,.3h0Z"/>
  <path class="cls-10" d="M132.66,254.22c1.23-4.07,1.81-8.32,1.71-12.57-.02-.72-1.13-.72-1.12,0,.1,4.16-.46,8.29-1.67,12.27-.21,.69,.87,.98,1.08,.3h0Z"/>
  <path class="cls-10" d="M138.6,254.57c.13-1.93,.25-3.85,.38-5.78,.02-.3-.27-.56-.56-.56-.32,0-.54,.26-.56,.56-.13,1.93-.25,3.85-.38,5.78-.02,.3,.27,.56,.56,.56,.32,0,.54-.26,.56-.56h0Z"/>
  <path class="cls-10" d="M143.02,255.76v-4.08c0-.72-1.12-.72-1.12,0v4.08c0,.72,1.12,.72,1.12,0h0Z"/>
  <path class="cls-10" d="M147.74,254.94c-.11-.38-.21-.77-.28-1.16-.02-.09-.03-.18-.04-.27,0-.02-.03-.19-.02-.11,0,.08-.01-.09-.01-.11-.02-.2-.04-.4-.05-.59-.02-.29-.24-.57-.56-.56-.29,.01-.58,.25-.56,.56,.05,.86,.19,1.71,.44,2.54,.08,.28,.4,.48,.69,.39,.28-.09,.48-.39,.39-.69h0Z"/>
  <path class="cls-12" d="M134.94,215.53c19.18-13.74,26.63-26.87,44.52-33.97-11.3,2.5-24.27,6.35-34.03,.13-10.32-6.58-20.79-9.37-28.16-1.09-7.54,8.49-3.41,22.68-1.39,27.84,1.58,4.05-2.4,11.81-3.91,15.88-1.5,4.04-6.38,9.97-6.5,11.61,3.14-4.06,11.81-5.16,15.59-8.58,4.92-4.46,8.41-7.92,13.87-11.83Z"/>
  <path class="cls-5" d="M136.66,194.2c-3.28,1.98-7.06,3.7-10.84,3.04-4.42-.76-7.82-4.84-8.56-9.26-.59-3.52,.43-6.25,1.7-9.04-.58,.5-1.14,1.05-1.69,1.66-7.54,8.49-3.41,22.68-1.39,27.84,1.58,4.05-2.4,11.81-3.91,15.88-1.5,4.04-6.38,9.97-6.5,11.61,3.14-4.06,7.51-8.06,11.29-11.49,.08-.07,.16-.15,.24-.22,.3-5.41,2.44-10.72,5.48-15.27,3.81-5.69,8.96-10.33,14.17-14.77Z"/>
  <path class="cls-2" d="M128.24,182.45c3.15-.11,6.53-.94,9.3,.55,.53,.28,1.02,.65,1.58,.85s1.25,.21,1.71-.18c.57-.48,.57-1.4,.2-2.05-.37-.65-1.01-1.08-1.64-1.48-2.02-1.28-4.15-2.47-6.49-2.95-1.91-.39-5.57-.34-7.05,1.27-1.88,2.05,0,4.08,2.38,4Z"/>
</svg>