<svg width="1728" height="578" viewBox="0 0 1728 578" fill="none" xmlns="http://www.w3.org/2000/svg">
<path d="M209.167 9.75342C222.096 -12.1585 234.03 39.6588 254.915 9.75318C275.8 -20.1524 293.362 30.1932 307.625 9.75318C321.889 -10.6868 346.909 34.2699 361.33 9.75319C375.751 -14.7635 397.254 29.1744 410.062 9.75342C422.871 -9.66751 444.871 31.2127 461.778 9.75342C478.685 -11.7059 504.612 33.8015 521.45 9.75319C538.287 -14.2952 559.739 28.1549 575.154 9.75342C590.569 -8.64809 615.93 31.2592 632.837 9.75319C649.744 -11.7529 667.645 34.317 686.542 9.75342C705.438 -14.8101 721.848 29.2154 735.274 9.75342C748.7 -9.70858 774.06 31.2597 791.962 9.75342C809.864 -11.7528 834.23 34.317 851.137 9.75319C868.045 -14.8106 880.817 33.3545 903.847 9.75342C926.877 -13.8477 934.677 31.8258 956.557 9.75342C978.437 -12.3189 983.409 35.9025 1005.29 9.75319C1027.17 -16.3961 1035.13 31.8258 1054.02 9.75319C1072.92 -12.3194 1087.84 33.8641 1106.73 9.75319C1125.63 -14.3577 1139.55 30.8066 1154.47 9.75319C1169.39 -11.3002 1194.25 34.8833 1211.16 9.75342C1228.06 -15.3764 1249.94 27.7491 1261.88 9.75342C1273.81 -8.24221 1294.7 27.7491 1308.62 9.75319C1322.54 -8.24268 1343.43 28.7682 1355.36 9.75342C1367.3 -9.26138 1382.22 28.7682 1399.12 9.75319C1416.03 -9.26186 1433.93 33.8641 1450.84 9.75342C1467.75 -14.3573 1484.65 30.8066 1496.59 9.75319C1508.52 -11.3002 1532.39 29.7874 1547.31 9.75319C1562.23 -10.281 1581.12 25.7107 1595.05 9.75319C1608.97 -6.20433 1624.88 26.7299 1637.81 9.75319C1650.74 -7.22351 1663.67 27.1827 1677.59 9.75342C1691.52 -7.67589 1719.36 32.0715 1727.82 9.75319L1796 305L1727.82 578H2.30417L-84 331L-16 56C-16 56 -9.63021 31.8404 2.30417 9.75317C14.2385 -12.3341 50.0417 31.6653 59.987 9.75318C70.7976 -14.0653 92.8065 31.6656 106.73 9.75342C120.653 -12.1588 150.489 31.6654 163.418 9.75318C176.347 -12.159 196.238 31.6654 209.167 9.75342Z" fill="#C4E6FF"/>
</svg>
